<?xml version="1.0" encoding="UTF-8" standalone="no"?>
<svg width="84px" height="72px" viewBox="0 0 84 72" version="1.1" xmlns="http://www.w3.org/2000/svg" xmlns:xlink="http://www.w3.org/1999/xlink" xmlns:sketch="http://www.bohemiancoding.com/sketch/ns">
    <!-- Generator: Sketch 3.5.1 (25234) - http://www.bohemiancoding.com/sketch -->
    <title>Group 44</title>
    <desc>Created with Sketch.</desc>
    <defs></defs>
    <g id="Welcome" stroke="none" stroke-width="1" fill="none" fill-rule="evenodd" sketch:type="MSPage">
        <g id="Group-44" sketch:type="MSLayerGroup" transform="translate(2.000000, 1.000000)">
            <path d="M0,18.5 L80,18.5" id="Shape" stroke="#000000" stroke-width="3" sketch:type="MSShapeGroup"></path>
            <path d="M11.9,4.7 L13.3,7.7 L16.7,8.2 L14.3,10.5 L14.8,13.8 L11.9,12.2 L8.9,13.8 L9.5,10.5 L7.1,8.2 L10.4,7.7 L11.9,4.7 Z" id="Shape" fill="#000000" sketch:type="MSShapeGroup"></path>
            <path d="M25,9.5 L35,9.5" id="Shape" stroke="#000000" stroke-width="3" sketch:type="MSShapeGroup"></path>
            <path d="M38,9.5 L48,9.5" id="Shape" stroke="#000000" stroke-width="3" sketch:type="MSShapeGroup"></path>
            <path d="M51,9.5 L61,9.5" id="Shape" stroke="#000000" stroke-width="3" sketch:type="MSShapeGroup"></path>
            <path d="M64,9.5 L74,9.5" id="Shape" stroke="#000000" stroke-width="3" sketch:type="MSShapeGroup"></path>
            <path d="M6,26.5 L74,26.5" id="Shape" stroke="#000000" stroke-width="3" sketch:type="MSShapeGroup"></path>
            <rect id="Rectangle-path" stroke="#000000" stroke-width="3" sketch:type="MSShapeGroup" x="7.5" y="33.5" width="11" height="10"></rect>
            <rect id="Rectangle-path" stroke="#000000" stroke-width="3" sketch:type="MSShapeGroup" x="25.5" y="33.5" width="11" height="10"></rect>
            <rect id="Rectangle-path" stroke="#000000" stroke-width="3" sketch:type="MSShapeGroup" x="43.5" y="33.5" width="11" height="10"></rect>
            <rect id="Rectangle-path" stroke="#000000" stroke-width="3" sketch:type="MSShapeGroup" x="61.5" y="33.5" width="11" height="10"></rect>
            <rect id="Rectangle-path" stroke="#000000" stroke-width="3" sketch:type="MSShapeGroup" x="7.5" y="50.5" width="11" height="10"></rect>
            <rect id="Rectangle-path" stroke="#000000" stroke-width="3" sketch:type="MSShapeGroup" x="25.5" y="50.5" width="11" height="10"></rect>
            <rect id="Rectangle-path" stroke="#000000" stroke-width="3" sketch:type="MSShapeGroup" x="43.5" y="50.5" width="11" height="10"></rect>
            <rect id="Rectangle-path" stroke="#000000" stroke-width="3" sketch:type="MSShapeGroup" x="61.5" y="50.5" width="11" height="10"></rect>
            <rect id="Rectangle-path" stroke="#000000" stroke-width="3" sketch:type="MSShapeGroup" x="0" y="0.5" width="80" height="68.5"></rect>
        </g>
    </g>
</svg>